<mxfile host="app.diagrams.net" modified="2024-07-16T06:37:54.617Z" agent="Mozilla/5.0 (Windows NT 10.0; Win64; x64) AppleWebKit/537.36 (KHTML, like Gecko) Chrome/124.0.0.0 Safari/537.36 Edg/124.0.0.0" version="24.6.3" etag="ea6bHNEgZFqZ8nqGy0v1" type="github">
  <diagram name="第 1 页" id="_X20oZnj2oeGaRqEeRO1">
    <mxGraphModel>
      <root>
        <mxCell id="0" />
        <mxCell id="1" parent="0" />
      </root>
    </mxGraphModel>
  </diagram>
</mxfile>
